<svg width="57" height="57" viewBox="0 0 57 57" fill="none" xmlns="http://www.w3.org/2000/svg">
<g clip-path="url(#clip0_248_941)">
<path d="M56.5324 28.2687C56.5324 12.7866 43.9817 0.235943 28.4996 0.235943C13.0175 0.235943 0.466797 12.7866 0.466797 28.2687C0.466797 42.2607 10.718 53.858 24.1195 55.961V36.372H17.0018V28.2687H24.1195V22.0928C24.1195 15.067 28.3046 11.1863 34.7079 11.1863C37.7749 11.1863 40.9829 11.7338 40.9829 11.7338V18.6325H37.4481C33.9657 18.6325 32.8797 20.7933 32.8797 23.0102V28.2687H40.6544L39.4116 36.372H32.8797V55.961C46.2812 53.858 56.5324 42.2607 56.5324 28.2687Z" fill="#1877F2"/>
<path d="M39.4118 36.3717L40.6546 28.2685H32.8799V23.01C32.8799 20.7931 33.9659 18.6322 37.4483 18.6322H40.9831V11.7335C40.9831 11.7335 37.7751 11.186 34.7081 11.186C28.3048 11.186 24.1197 15.0668 24.1197 22.0925V28.2685H17.002V36.3717H24.1197V55.9607C25.5469 56.1846 27.0097 56.3013 28.4998 56.3013C29.9899 56.3013 31.4527 56.1846 32.8799 55.9607V36.3717H39.4118Z" fill="white"/>
</g>
<defs>
<clipPath id="clip0_248_941">
<rect width="56.0656" height="56.0656" fill="white" transform="translate(0.466797 0.235657)"/>
</clipPath>
</defs>
</svg>
